<svg width="47" height="48" viewBox="0 0 47 48" fill="none" xmlns="http://www.w3.org/2000/svg">
<path d="M23.5 32L31.3333 24L28.5917 21.2L25.4583 24.4V16H21.5417V24.4L18.4083 21.2L15.6667 24L23.5 32ZM23.5 44C20.791 44 18.2451 43.4747 15.8625 42.424C13.4799 41.3733 11.4073 39.9487 9.64478 38.15C7.88228 36.35 6.4873 34.2333 5.45982 31.8C4.43235 29.3667 3.91796 26.7667 3.91666 24C3.91666 21.2333 4.43105 18.6333 5.45982 16.2C6.4886 13.7667 7.88359 11.65 9.64478 9.85C11.4073 8.05 13.4799 6.62533 15.8625 5.576C18.2451 4.52667 20.791 4.00133 23.5 4C26.209 4 28.7548 4.52533 31.1375 5.576C33.5201 6.62667 35.5927 8.05133 37.3552 9.85C39.1177 11.65 40.5133 13.7667 41.5421 16.2C42.5709 18.6333 43.0846 21.2333 43.0833 24C43.0833 26.7667 42.5689 29.3667 41.5402 31.8C40.5114 34.2333 39.1164 36.35 37.3552 38.15C35.5927 39.95 33.5201 41.3753 31.1375 42.426C28.7548 43.4767 26.209 44.0013 23.5 44ZM23.5 40C27.8736 40 31.5781 38.45 34.6135 35.35C37.6489 32.25 39.1667 28.4667 39.1667 24C39.1667 19.5333 37.6489 15.75 34.6135 12.65C31.5781 9.55 27.8736 8 23.5 8C19.1264 8 15.4219 9.55 12.3864 12.65C9.35103 15.75 7.83332 19.5333 7.83332 24C7.83332 28.4667 9.35103 32.25 12.3864 35.35C15.4219 38.45 19.1264 40 23.5 40Z" fill="black"/>
</svg>
