<svg width="133" height="129" viewBox="0 0 133 129" fill="none" xmlns="http://www.w3.org/2000/svg">
<rect width="133" height="129" fill="#F9F9E0"/>
<rect width="81" height="76" transform="translate(26 26)" fill="#F9F9E0"/>
<path d="M70.2969 72.3315V46.4867H60.1719V72.3267C56.6205 74.0557 54.1627 77.5042 54.1627 81.518C54.2063 84.2469 55.3922 86.8501 57.4643 88.7655C59.5363 90.681 62.3282 91.7548 65.2369 91.7551C68.1457 91.7554 70.9378 90.6822 73.0103 88.7672C75.0828 86.8522 76.2694 84.2492 76.3137 81.5204C76.3137 77.5066 73.8583 74.0581 70.2994 72.3339L70.2969 72.3315ZM77.8906 38.464C77.8906 31.9185 72.2105 26.589 65.2344 26.589C58.2583 26.589 52.5781 31.9209 52.5781 38.464V68.6906C50.6818 70.3194 49.1679 72.301 48.1329 74.5091C47.0978 76.7172 46.5643 79.1034 46.5664 81.5156C46.5664 91.1724 54.9449 99.036 65.2369 99.036C75.529 99.036 83.9049 91.1748 83.9049 81.5156C83.9049 76.5614 81.6824 71.9444 77.8932 68.6859V38.4687L77.8906 38.464ZM78.8399 81.5227C78.8352 84.9064 77.4 88.1501 74.8493 90.542C72.2985 92.934 68.8406 94.2787 65.2344 94.2812C61.6288 94.2768 58.1722 92.931 55.6226 90.5388C53.0731 88.1466 51.6387 84.9034 51.634 81.5204C51.634 77.2573 53.902 73.3432 57.6482 70.9801V38.4687C57.6482 34.5429 61.0477 31.3437 65.2344 31.3437C69.4211 31.3437 72.8281 34.5405 72.8281 38.4687V70.9825C74.6774 72.1389 76.1937 73.7058 77.2424 75.5441C78.2912 77.3824 78.8399 79.4376 78.8399 81.5227ZM81.9027 46.4867L93.2933 52.657V40.3212L81.9027 46.4867Z" fill="#FF004D"/>
</svg>
