<svg width="133" height="129" viewBox="0 0 133 129" fill="none" xmlns="http://www.w3.org/2000/svg">
<rect width="133" height="129" fill="#F9F9E0"/>
<path d="M66.5 98C81.537 98 94 86.847 94 72.7701C94 63.9766 89.479 55.0775 84.3677 47.7842C79.2233 40.4399 73.287 34.4574 70.086 31.4316C69.1213 30.5129 67.8365 30 66.5 30C65.1635 30 63.8787 30.5129 62.914 31.4316C59.713 34.4538 53.7767 40.4399 48.6323 47.7842C43.521 55.0775 39 63.9766 39 72.7701C39 86.847 51.463 98 66.5 98Z" fill="#86B6F6" stroke="#5356FF"/>
<path d="M66.5 85.2558C62.6102 85.2558 58.8796 83.7213 56.1291 80.9899C53.3786 78.2584 51.8333 74.5538 51.8333 70.691" fill="#86B6F6"/>
<path d="M66.5 85.2558C62.6102 85.2558 58.8796 83.7213 56.1291 80.9898C53.3786 78.2584 51.8333 74.5538 51.8333 70.691" stroke="#5356FF" stroke-linecap="round"/>
</svg>
