<svg width="50" height="46" viewBox="0 0 50 46" fill="none" xmlns="http://www.w3.org/2000/svg">
<path d="M24.9479 28.7979C23.2118 28.7979 21.7361 28.2389 20.5208 27.1208C19.3055 26.0028 18.6979 24.6451 18.6979 23.0479C18.6979 21.4507 19.3055 20.093 20.5208 18.975C21.7361 17.8569 23.2118 17.2979 24.9479 17.2979C26.684 17.2979 28.1597 17.8569 29.375 18.975C30.5903 20.093 31.1979 21.4507 31.1979 23.0479C31.1979 24.6451 30.5903 26.0028 29.375 27.1208C28.1597 28.2389 26.684 28.7979 24.9479 28.7979ZM24.9479 42.1667L16.0937 34.0208L19.0625 31.2896L25 36.7521L30.8854 31.3375L33.8021 34.0208L24.9479 42.1667ZM12.9687 31.1937L4.11456 23.0479L12.9687 14.9021L15.9375 17.6333L9.99998 23.0958L15.8854 28.5104L12.9687 31.1937ZM19.0104 14.6625L16.0937 11.9792L24.9479 3.83333L33.8021 11.9792L30.8333 14.7104L24.8958 9.24791L19.0104 14.6625ZM36.9271 31.1937L33.9583 28.4625L39.8958 23L34.0104 17.5854L36.9271 14.9021L45.7812 23.0479L36.9271 31.1937Z" fill="black"/>
</svg>
