<svg width="41" height="35" viewBox="0 0 41 35" fill="none" xmlns="http://www.w3.org/2000/svg">
<path d="M20.5 3.6875C17.2861 3.6875 14.1443 4.49759 11.472 6.01533C8.79969 7.53306 6.71689 9.69028 5.48696 12.2142C4.25704 14.7381 3.93524 17.5153 4.56225 20.1947C5.18926 22.874 6.73692 25.3352 9.00952 27.2669C11.2821 29.1986 14.1776 30.5141 17.3298 31.0471C20.482 31.5801 23.7493 31.3065 26.7186 30.2611C29.6879 29.2157 32.2258 27.4453 34.0114 25.1738C35.797 22.9024 36.75 20.2319 36.75 17.5C36.7455 13.8379 35.0319 10.3269 31.9855 7.73736C28.939 5.14785 24.8084 3.69137 20.5 3.6875ZM20.5 29.1875C17.7805 29.1875 15.1221 28.502 12.8609 27.2178C10.5997 25.9336 8.83737 24.1082 7.79666 21.9726C6.75596 19.837 6.48366 17.487 7.01421 15.2199C7.54476 12.9527 8.85432 10.8702 10.7773 9.23569C12.7003 7.60116 15.1503 6.48804 17.8175 6.03707C20.4848 5.58611 23.2494 5.81756 25.7619 6.70216C28.2744 7.58676 30.4218 9.08477 31.9327 11.0068C33.4436 12.9288 34.25 15.1884 34.25 17.5C34.2459 20.5986 32.7959 23.5694 30.2182 25.7604C27.6404 27.9515 24.1455 29.184 20.5 29.1875ZM30.5 17.5C30.5 17.7818 30.3683 18.052 30.1339 18.2513C29.8995 18.4506 29.5815 18.5625 29.25 18.5625H20.5C20.1685 18.5625 19.8505 18.4506 19.6161 18.2513C19.3817 18.052 19.25 17.7818 19.25 17.5V10.0625C19.25 9.78071 19.3817 9.51046 19.6161 9.3112C19.8505 9.11194 20.1685 9 20.5 9C20.8315 9 21.1495 9.11194 21.3839 9.3112C21.6183 9.51046 21.75 9.78071 21.75 10.0625V16.4375H29.25C29.5815 16.4375 29.8995 16.5494 30.1339 16.7487C30.3683 16.948 30.5 17.2182 30.5 17.5Z" fill="black"/>
</svg>
