<svg width="29" height="41" viewBox="0 0 29 41" fill="none" xmlns="http://www.w3.org/2000/svg">
<path d="M14.7199 25.8871V11.2608H8.65277V25.8844C6.52471 26.8629 5.0519 28.8145 5.0519 31.086C5.07805 32.6304 5.78867 34.1036 7.03029 35.1876C8.27192 36.2716 9.94489 36.8793 11.6879 36.8795C13.4309 36.8797 15.104 36.2723 16.3459 35.1886C17.5878 34.1048 18.2988 32.6317 18.3254 31.0874C18.3254 28.8159 16.8541 26.8642 14.7215 25.8884L14.7199 25.8871ZM19.2703 6.72043C19.2703 3.01613 15.8666 0 11.6864 0C7.50607 0 4.10239 3.01747 4.10239 6.72043V23.8266C2.96606 24.7484 2.05889 25.8699 1.43866 27.1195C0.818433 28.3691 0.498757 29.7195 0.500004 31.0847C0.500004 36.5497 5.52059 41 11.6879 41C17.8552 41 22.8742 36.5511 22.8742 31.0847C22.8742 28.2809 21.5425 25.668 19.2718 23.8239V6.72312L19.2703 6.72043ZM19.8391 31.0887C19.8363 33.0036 18.9763 34.8393 17.4478 36.193C15.9194 37.5467 13.8473 38.3077 11.6864 38.3091C9.52577 38.3066 7.45449 37.545 5.92673 36.1912C4.39896 34.8374 3.53943 33.0019 3.53662 31.0874C3.53662 28.6747 4.89567 26.4597 7.14052 25.1223V6.72312C7.14052 4.50134 9.17758 2.69086 11.6864 2.69086C14.1951 2.69086 16.2367 4.5 16.2367 6.72312V25.1237C17.3448 25.7781 18.2535 26.6648 18.8819 27.7052C19.5103 28.7456 19.8391 29.9087 19.8391 31.0887ZM21.6744 11.2608L28.5 14.7527V7.77151L21.6744 11.2608Z" fill="#FF004D"/>
</svg>
