<svg width="30" height="43" viewBox="0 0 30 43" fill="none" xmlns="http://www.w3.org/2000/svg">
<path d="M15 42C22.6552 42 29 35.2754 29 26.7879C29 21.4859 26.6984 16.1203 24.0963 11.7228C21.4773 7.29464 18.4552 3.68755 16.8256 1.86314C16.3345 1.30925 15.6804 1 15 1C14.3196 1 13.6655 1.30925 13.1744 1.86314C11.5448 3.68535 8.52267 7.29464 5.90373 11.7228C3.3016 16.1203 1 21.4859 1 26.7879C1 35.2754 7.3448 42 15 42Z" fill="#86B6F6" stroke="#5356FF"/>
<path d="M20 34.316C17.3124 34.316 14.735 33.3908 12.8346 31.7439C10.9343 30.097 9.86664 27.8633 9.86664 25.5343" fill="#86B6F6"/>
<path d="M20 34.316C17.3124 34.316 14.735 33.3908 12.8346 31.7439C10.9343 30.097 9.86664 27.8633 9.86664 25.5343" stroke="#5356FF" stroke-linecap="round"/>
</svg>
